<?xml version="1.0" encoding="UTF-8" standalone="no"?>
<!-- Generator: Adobe Illustrator 13.0.0, SVG Export Plug-In . SVG Version: 6.00 Build 14948)  -->

<svg
   xmlns:ns="&amp;ns_sfw;"
   xmlns:dc="http://purl.org/dc/elements/1.1/"
   xmlns:cc="http://creativecommons.org/ns#"
   xmlns:rdf="http://www.w3.org/1999/02/22-rdf-syntax-ns#"
   xmlns:svg="http://www.w3.org/2000/svg"
   xmlns="http://www.w3.org/2000/svg"
   xmlns:sodipodi="http://sodipodi.sourceforge.net/DTD/sodipodi-0.dtd"
   xmlns:inkscape="http://www.inkscape.org/namespaces/inkscape"
   version="1.2"
   id="Layer_3"
   x="0px"
   y="0px"
   width="598.189px"
   height="350.26px"
   viewBox="0 0 598.189 350.26"
   xml:space="preserve"
   sodipodi:docname="controller.svg"
   inkscape:version="0.92.4 (5da689c313, 2019-01-14)"><defs
   id="defs17" /><sodipodi:namedview
   pagecolor="#ffffff"
   bordercolor="#666666"
   borderopacity="1"
   objecttolerance="10"
   gridtolerance="10"
   guidetolerance="10"
   inkscape:pageopacity="0"
   inkscape:pageshadow="2"
   inkscape:window-width="1920"
   inkscape:window-height="1017"
   id="namedview15"
   showgrid="false"
   inkscape:zoom="1.5818959"
   inkscape:cx="317.39259"
   inkscape:cy="269.52371"
   inkscape:window-x="-8"
   inkscape:window-y="-8"
   inkscape:window-maximized="1"
   inkscape:current-layer="Layer_3" />
<metadata
   id="metadata55">
	<rdf:RDF>
		<cc:Work
   rdf:about="">
			<dc:format>image/svg+xml</dc:format>
			<dc:type
   rdf:resource="http://purl.org/dc/dcmitype/StillImage" />
			<dc:title />
		</cc:Work>
	</rdf:RDF>
	<ns:sfw>
		<ns:slices />
		<ns:sliceSourceBounds
   x="712.69"
   y="-7652"
   width="493.792"
   height="16383"
   bottomLeftOrigin="true" />
	</ns:sfw>
</metadata>

<path
   id="circle5"
   d="m 369.5038,132.57015 c -11.88047,-0.52355 -21.96254,8.68252 -22.48608,20.56299 -0.52354,11.88047 8.7085,21.96369 20.58897,22.48723 11.88047,0.52354 21.93671,-8.70969 22.46025,-20.59016 0.52458,-11.88142 -8.68267,-21.93652 -20.56314,-22.46006 z m -0.0722,1.63841 c 10.99433,0.48449 19.48151,9.75312 18.99697,20.74845 -0.48453,10.99533 -9.75527,19.50744 -20.7496,19.02295 -10.99433,-0.48449 -19.50634,-9.78025 -19.0218,-20.77557 0.48454,-10.99533 9.7811,-19.48028 20.77443,-18.99583 z"
   inkscape:connector-curvature="0"
   style="fill:#f4f4f4" />
<path
   id="circle7"
   d="m 395.30768,177.04818 c -11.88047,-0.52354 -21.96368,8.7085 -22.48718,20.58797 -0.52354,11.88047 8.70964,21.93771 20.59011,22.46125 11.88047,0.52355 21.93557,-8.68371 22.45911,-20.56418 0.52354,-11.88047 -8.68257,-21.96154 -20.56204,-22.48504 z m -0.0722,1.63841 c 10.99433,0.4845 19.48037,9.7791 18.99587,20.77343 -0.48449,10.99433 -9.75412,19.48147 -20.74845,18.99698 -10.99433,-0.4845 -19.50744,-9.75527 -19.02295,-20.7496 0.4845,-10.99433 9.7812,-19.5053 20.77553,-19.02081 z"
   inkscape:connector-curvature="0"
   style="fill:#f4f4f4" />
<path
   id="circle9"
   d="m 440.73529,152.0493 c -11.88047,-0.52355 -21.96369,8.70849 -22.48718,20.58796 -0.52355,11.88047 8.70849,21.96369 20.58896,22.48723 11.88047,0.52354 21.93671,-8.70968 22.46026,-20.59015 0.52354,-11.88047 -8.68157,-21.9615 -20.56204,-22.48504 z m -0.0722,1.63841 c 10.99433,0.48449 19.48036,9.7791 18.99587,20.77343 -0.48454,10.99533 -9.75527,19.50744 -20.7496,19.02294 -10.99433,-0.48449 -19.50634,-9.78024 -19.0218,-20.77557 0.48445,-10.99333 9.7812,-19.5053 20.77553,-19.0208 z"
   inkscape:connector-curvature="0"
   style="fill:#f4f4f4" />
<path
   id="circle11"
   d="m 415.33042,106.5279 c -11.88047,-0.52355 -21.93671,8.70968 -22.46026,20.59015 -0.52354,11.88047 8.68367,21.93657 20.56314,22.46007 11.88147,0.52358 21.96254,-8.68252 22.48608,-20.56299 0.52259,-11.88152 -8.70849,-21.96369 -20.58896,-22.48723 z m -0.0722,1.63841 c 10.99533,0.48453 19.50629,9.78124 19.0218,20.77557 -0.48449,10.99433 -9.7791,19.48036 -20.77443,18.99583 -10.99433,-0.4845 -19.48147,-9.75413 -18.99697,-20.74846 0.48449,-10.99433 9.75527,-19.50744 20.7496,-19.02294 z"
   inkscape:connector-curvature="0"
   style="fill:#f4f4f4" />
<path
   id="circle13"
   d="m 194.53111,106.36304 c -35.9671,-1.58499 -66.43578,26.31168 -68.02076,62.27878 -1.58498,35.96709 26.31279,66.4108 62.27988,67.99578 35.96709,1.58498 66.40975,-26.28881 67.99468,-62.25491 1.58494,-35.96609 -26.28671,-66.43467 -62.2538,-68.01965 z m -0.0722,1.6394 c 35.08195,1.54598 62.23258,31.22706 60.6866,66.30901 -1.54597,35.08195 -31.20212,62.23467 -66.28307,60.68874 -35.08096,-1.54593 -62.25965,-31.20322 -60.71368,-66.28517 1.54598,-35.08195 31.2292,-62.25851 66.31015,-60.71258 z"
   inkscape:connector-curvature="0"
   style="fill:#f4f4f4" />
<path
   id="circle15"
   d="m 193.06288,139.6807 c -17.56196,-0.77391 -32.461,12.86839 -33.23487,30.42934 -0.77387,17.56096 12.86949,32.43603 30.43045,33.2099 17.56095,0.77387 32.43388,-12.84356 33.20779,-30.40552 0.77391,-17.56195 -12.84141,-32.45981 -30.40337,-33.23372 z m -0.0722,1.63941 c 16.67581,0.73486 29.57202,14.8473 28.83716,31.52311 -0.73487,16.67582 -14.82133,29.57317 -31.49714,28.83831 -16.67582,-0.73486 -29.59914,-14.82247 -28.86428,-31.49829 0.73486,-16.67581 14.84944,-29.59795 31.52426,-28.86313 z"
   inkscape:connector-curvature="0"
   style="fill:#f4f4f4" />
<path
   id="path17"
   d="m 296.74237,169.90886 c -3.30365,1.81632 -8.39016,6.77086 -6.57311,10.07397 1.81633,3.30366 8.51386,2.10701 11.81751,0.29068 l 15.16799,-8.31947 c 3.30364,-1.81632 8.77734,-7.20647 6.96157,-10.50938 -1.81632,-3.30365 -8.91518,-1.69054 -12.21882,0.12578 z m 0.74075,1.31823 15.15459,-8.33915 c 2.5927,-1.42527 8.73329,-3.29614 10.15912,-0.70271 1.42471,2.59194 -3.79122,7.02382 -6.3841,8.45038 l -15.15387,8.33861 c -2.59214,1.426 -8.33197,2.87968 -9.75798,0.28754 -1.42581,-2.59343 3.38954,-6.60941 5.98224,-8.03467 z"
   inkscape:connector-curvature="0"
   style="fill:#f4f4f4;stroke-width:0.9148913"
   sodipodi:nodetypes="cccccccccccccc" />



<path
   id="path17-8"
   d="m 297.7624,215.28649 c -3.30364,1.81632 -8.39016,6.77086 -6.5731,10.07396 1.81633,3.30366 8.51386,2.10701 11.81751,0.29068 l 15.16799,-8.31947 c 3.30364,-1.81632 8.77734,-7.20647 6.96157,-10.50938 -1.81632,-3.30364 -8.91518,-1.69053 -12.21882,0.12578 z m 0.74076,1.31823 15.15459,-8.33916 c 2.5927,-1.42527 8.73329,-3.29614 10.15912,-0.70271 1.42471,2.59195 -3.79122,7.02382 -6.3841,8.45039 l -15.15387,8.3386 c -2.59214,1.42601 -8.33197,2.87968 -9.75798,0.28754 -1.42581,-2.59343 3.38954,-6.6094 5.98224,-8.03466 z"
   inkscape:connector-curvature="0"
   style="fill:#f4f4f4;stroke-width:0.9148913"
   sodipodi:nodetypes="cccccccccccccc" /><path
   style="color:#000000;font-style:normal;font-variant:normal;font-weight:normal;font-stretch:normal;font-size:medium;line-height:normal;font-family:sans-serif;font-variant-ligatures:normal;font-variant-position:normal;font-variant-caps:normal;font-variant-numeric:normal;font-variant-alternates:normal;font-feature-settings:normal;text-indent:0;text-align:start;text-decoration:none;text-decoration-line:none;text-decoration-style:solid;text-decoration-color:#000000;letter-spacing:normal;word-spacing:normal;text-transform:none;writing-mode:lr-tb;direction:ltr;text-orientation:mixed;dominant-baseline:auto;baseline-shift:baseline;text-anchor:start;white-space:normal;shape-padding:0;clip-rule:nonzero;display:inline;overflow:visible;visibility:visible;opacity:1;isolation:auto;mix-blend-mode:normal;color-interpolation:sRGB;color-interpolation-filters:linearRGB;solid-color:#000000;solid-opacity:1;vector-effect:none;fill:#f4f4f4;fill-opacity:1;fill-rule:nonzero;stroke:none;stroke-width:2.4000001;stroke-linecap:butt;stroke-linejoin:miter;stroke-miterlimit:4;stroke-dasharray:none;stroke-dashoffset:0;stroke-opacity:1;color-rendering:auto;image-rendering:auto;shape-rendering:auto;text-rendering:auto;enable-background:accumulate"
   d="m 170.13672,77.318359 -0.11914,0.01367 c -22.23366,2.776429 -39.21946,13.605524 -51.13672,31.738279 l -0.0352,0.0547 -0.0293,0.0566 c -14.41259,28.09897 -29.124073,58.76647 -27.195316,91.57813 l 0.0059,0.0859 0.01758,0.0859 c 8.122821,39.31582 40.890489,75.47854 82.164059,79.99609 l 0.14063,0.0137 0.14062,-0.0176 c 73.94285,-9.35337 149.87835,-23.1115 223.19141,-4.49219 35.70635,12.92533 82.07684,-1.53278 97.22852,-38.1875 l 0.0156,-0.0352 0.0117,-0.0351 c 7.34008,-21.46845 4.57852,-46.11654 2.1875,-67.62695 -1.45829,-38.07052 -25.09346,-76.840297 -62.67188,-90.423833 l -0.0703,-0.02539 -0.0723,-0.01758 c -33.95819,-7.708112 -67.84411,4.791525 -101.06055,7.261719 l -0.0547,0.0039 -0.0547,0.0098 C 278.58725,96.444076 224.31907,81.383776 170.25586,77.326172 Z m 0.0703,2.416016 c 53.6769,4.046541 108.09962,19.171217 162.87109,9.996094 33.64778,-2.512133 67.20534,-14.791413 100.23829,-7.31836 36.47038,13.227252 59.60716,51.141351 61.01367,88.265621 l 0.002,0.0449 0.004,0.043 c 2.39076,21.50843 5.02767,45.83424 -2.06055,66.59961 -14.60548,35.26438 -59.74763,49.34323 -94.28711,36.77735 l -0.0566,-0.0215 -0.0586,-0.0156 c -73.91501,-18.77219 -150.11788,-4.92592 -223.92188,4.41601 -39.93847,-4.43535 -71.98532,-39.71 -79.933592,-77.98046 -1.852479,-31.95356 12.530992,-62.17884 26.898442,-90.19336 11.56458,-17.572924 27.7373,-27.893365 49.29101,-30.613285 z"
   id="path4553"
   inkscape:connector-curvature="0" /></svg>